<svg version="1.2" baseProfile="tiny-ps" xmlns="http://www.w3.org/2000/svg" viewBox="0 0 262 72" width="262" height="72">
	<title>58eaeb4e52248a5c75936c6f4c33a370-svg</title>
	<style>
		tspan { white-space:pre }
		.shp0 { fill: #ffffff } 
		.shp1 { fill: none;stroke: #ffffff } 
		.shp2 { fill: #d8d8d8 } 
		.shp3 { opacity: 0.541;fill: #ffffff } 
	</style>
	<g id="Layer">
		<path id="Layer" fill-rule="evenodd" class="shp0" d="M5.43 9.43L8 12L1 12L1 5L3.96 7.96C5.41 6.74 7.28 6 9.32 6C12.78 6 15.74 8.11 17 11L15 12C14.06 9.61 11.87 8.08 9.32 8C7.85 8.05 6.5 8.58 5.43 9.43Z" />
	</g>
	<g id="Layer">
		<path id="Layer" fill-rule="evenodd" class="shp0" d="M30.57 9.43L28 12L35 12L35 5L32.04 7.96C30.59 6.74 28.72 6 26.68 6C23.22 6 20.26 8.11 19 11L21 12C21.94 9.61 24.13 8.08 26.68 8C28.15 8.05 29.5 8.58 30.57 9.43Z" />
	</g>
	<g id="Layer">
		<path id="Layer" fill-rule="evenodd" class="shp0" d="M50 16L40 16L40 13L37 13L37 8.01C37 6.9 37.89 6 38.99 6L51.01 6C52.11 6 53 6.89 53 8.01L53 13L50 13L50 16ZM42 14L48 14L48 11L42 11L42 14ZM40 2L50 2L50 5L40 5L40 2ZM49 10L51 10L51 8L49 8L49 10Z" />
	</g>
	<g id="Layer">
		<path id="Layer" fill-rule="evenodd" class="shp0" d="M66 2L58 2C57.45 2 57 2.45 57 3L57 6C57 6.55 57.45 7 58 7L66 7C66.55 7 67 6.55 67 6L67 5L68 5L68 8L61 8L61 16L63 16L63 10L70 10L70 4L67 4L67 3C67 2.45 66.55 2 66 2Z" />
	</g>
	<g id="Layer">
		<path id="Layer" fill-rule="evenodd" class="shp0" d="M74.27 4.55L75.55 3.27L87 14.73L85.73 16L81.14 11.42L79.5 15L77 15L79.43 9.7L74.27 4.55ZM77.82 3L88 3L88 5L84.08 5L82.74 7.92L81.03 6.21L81.58 5L79.82 5L77.82 3Z" />
	</g>
	<g id="Layer">
		<path id="Layer" fill-rule="evenodd" class="shp0" d="M101.63 8.82C102.73 9.34 103.5 10.45 103.5 11.75C103.5 13.54 102.04 15 100.25 15L94 15L94 3L99.5 3C101.43 3 103 4.57 103 6.5C103 7.38 102.46 8.24 101.63 8.82ZM97 5L97 8L99 8C99.83 8 100.5 7.33 100.5 6.5C100.5 5.67 99.83 5 99 5L97 5ZM99.5 13C100.33 13 101 12.33 101 11.5C101 10.67 100.33 10 99.5 10L97 10L97 13L99.5 13Z" />
	</g>
	<g id="Layer">
		<path id="Layer" class="shp0" d="M115 3L115 5L117.58 5L113.92 13L111 13L111 15L119 15L119 13L116.42 13L120.08 5L123 5L123 3L115 3Z" />
	</g>
	<g id="Layer">
		<path id="Layer" class="shp0" d="M135 15C137.76 15 140 12.76 140 10L140 3L138 3L138 10C138 11.75 136.5 13 135 13C133.5 13 132 11.76 132 10L132 3L130 3L130 10C130 12.76 132.24 15 135 15ZM129 16L129 18L141 18L141 16L129 16Z" />
	</g>
	<g id="Layer">
		<path id="Layer" fill-rule="evenodd" class="shp0" d="M149.18 7.31C149.21 7.38 150 8 150 8L153 8C152.5 7.5 152.02 7.19 151.76 7.02C151.74 7 151.72 6.99 151.7 6.97C151.33 6.73 151.15 6.43 151.15 6.07C151.15 5.89 151.18 5.73 151.25 5.57C151.32 5.42 151.43 5.28 151.58 5.17C151.72 5.05 151.9 4.96 152.12 4.9C152.34 4.83 152.59 4.8 152.89 4.8C153.2 4.8 153.46 4.84 153.69 4.92C153.91 4.99 154.1 5.1 154.25 5.24C154.4 5.38 154.51 5.55 154.58 5.75C154.66 5.94 154.69 6.16 154.69 6.39L156.95 6.39C156.95 5.89 156.86 5.44 156.66 5.03C156.47 4.61 156.2 4.26 155.85 3.96C155.5 3.65 155.07 3.42 154.58 3.25C154.09 3.08 153.53 3 152.93 3C152.33 3 151.79 3.08 151.3 3.22C150.8 3.37 150.38 3.57 150.02 3.84C149.66 4.11 149.38 4.43 149.18 4.81C148.99 5.19 148.89 5.6 148.89 6.06C148.89 6.54 148.99 6.95 149.18 7.31ZM160 9L146 9L146 11L153.22 11C153.35 11.05 153.52 11.11 153.63 11.15C153.91 11.28 154.13 11.41 154.28 11.54C154.44 11.67 154.55 11.81 154.6 11.96C154.66 12.11 154.69 12.29 154.69 12.47C154.69 12.65 154.65 12.81 154.58 12.96C154.52 13.12 154.41 13.25 154.27 13.36C154.13 13.47 153.95 13.55 153.74 13.62C153.52 13.68 153.27 13.71 152.98 13.71C152.65 13.71 152.36 13.68 152.09 13.61C151.82 13.55 151.6 13.45 151.41 13.3C151.22 13.16 151.08 12.97 150.97 12.74C150.87 12.52 150.78 12.17 150.78 12L148.55 12C148.55 12.25 148.61 12.69 148.73 13.03C148.84 13.36 149.01 13.67 149.21 13.93C149.42 14.2 149.67 14.43 149.95 14.62C150.23 14.82 150.53 14.98 150.86 15.11C151.19 15.24 151.53 15.34 151.9 15.4C152.26 15.46 152.62 15.49 152.98 15.49C153.58 15.49 154.13 15.43 154.62 15.29C155.1 15.15 155.53 14.95 155.87 14.69C156.22 14.44 156.48 14.12 156.67 13.74C156.86 13.36 156.95 12.94 156.95 12.46C156.95 12.01 156.88 11.6 156.72 11.24C156.68 11.16 156.64 11.07 156.59 10.99L160 11L160 9Z" />
	</g>
	<g id="Layer">
		<path id="Layer" fill-rule="evenodd" class="shp0" d="M172 1L176.49 13L174.49 13L173.37 10L168.62 10L167.5 13L165.5 13L170 1L172 1ZM169.38 8L172.62 8L171 3.67L169.38 8Z" />
	</g>
	<g id="Layer">
		<g id="Layer">
			<path id="Layer" fill-rule="evenodd" class="shp0" d="M194.5 8.87C194.5 8.87 196 10.5 196 11.49C196 12.32 195.33 12.99 194.5 12.99C193.67 12.99 193 12.32 193 11.49C193 10.49 194.5 8.87 194.5 8.87ZM192.71 6.79C193.1 7.18 193.1 7.82 192.71 8.21L188.21 12.71C188.01 12.9 187.76 13 187.5 13C187.24 13 186.99 12.9 186.79 12.7L182.29 8.2C181.9 7.81 181.9 7.18 182.29 6.79L186.44 2.65L184.85 1.06L185.91 0L192.71 6.79ZM184.21 7L190.79 7L187.5 3.71L184.21 7Z" />
		</g>
	</g>
	<g id="Layer">
		<path id="Layer" fill-rule="evenodd" class="shp0" d="M201 6L199 6L199 2L206 2L206 4L201 4L201 6ZM208 4L208 2L215 2L215 6L213 6L213 4L208 4ZM208 14L213 14L213 12L215 12L215 16L208 16L208 14ZM199 12L201 12L201 14L206 14L206 16L199 16L199 12ZM199 8L203 8L203 6L206 9L203 12L203 10L199 10L199 8ZM208 9L211 6L211 8L215 8L215 10L211 10L211 12L208 9Z" />
	</g>
	<g id="Layer">
		<path id="Layer" fill-rule="evenodd" class="shp0" d="M218 16L228 16L228 14L218 14L218 16ZM228 6L218 6L218 8L228 8L228 6ZM218 2L218 4L232 4L232 2L218 2ZM218 12L232 12L232 10L218 10L218 12Z" />
	</g>
	<g id="Layer">
		<path id="Layer" fill-rule="evenodd" class="shp0" d="M248 14L248 16L238 16L238 14L248 14ZM248 6L248 8L238 8L238 6L248 6ZM236 10L250 10L250 12L236 12L236 10ZM250 2L250 4L236 4L236 2L250 2Z" />
	</g>
	<g id="Layer">
		<path id="Layer" fill-rule="evenodd" class="shp0" d="M6 32L16 32L16 34L6 34L6 32ZM2 28L16 28L16 30L2 30L2 28ZM16 20L16 22L2 22L2 20L16 20ZM6 24L16 24L16 26L6 26L6 24Z" />
	</g>
	<g id="Layer">
		<path id="Layer" fill-rule="evenodd" class="shp0" d="M21 22L33 22L33 20L21 20L21 22ZM26 27L26 34L28 34L28 27L30.5 27L27 23.5L23.5 27L26 27Z" />
	</g>
	<g id="Layer">
		<path id="Layer" fill-rule="evenodd" class="shp0" d="M48.5 21L45 24.5L41.5 21L44 21L44 18L46 18L46 21L48.5 21ZM39 26L51 26L51 28L39 28L39 26ZM41.5 33L45 29.5L48.5 33L46 33L46 36L44 36L44 33L41.5 33Z" />
	</g>
	<g id="Layer">
		<path id="Layer" fill-rule="evenodd" class="shp0" d="M66.5 27L63 30.5L59.5 27L62 27L62 20L64 20L64 27L66.5 27ZM57 32L69 32L69 34L57 34L57 32Z" />
	</g>
	<g id="Layer">
		<path id="Layer" fill-rule="evenodd" class="shp0" d="M88 23L74 23L74 21L88 21L88 23ZM89 29.5C89 31.43 87.43 33 85.5 33L83 33L83 35L80 32L83 29L83 31L85.75 31C86.58 31 87.25 30.33 87.25 29.5C87.25 28.67 86.58 28 85.75 28L74 28L74 26L85.5 26C87.43 26 89 27.57 89 29.5ZM74 31L78 31L78 33L74 33L74 31Z" />
	</g>
	<g id="Layer">
		<path id="Layer" fill-rule="evenodd" class="shp0" d="M106 21L106 22L100 28L100 32L98 33L98 28L92 22L92 21L106 21ZM99 27L102 24L96 24L99 27Z" />
	</g>
	<g id="Layer">
		<path id="Layer" class="shp0" d="M122 20L112 20L112 21.8L117.5 27L112 32.2L112 34L122 34L122 32L115.1 32L120 27L115.1 22L122 22L122 20Z" />
	</g>
	<g id="Layer">
		<path id="Layer" class="shp0" d="M131 25L135 29L139 25L131 25Z" />
	</g>
	<g id="Layer">
		<path id="Layer" class="shp0" d="M151 31L155 27L151 23L151 31Z" />
	</g>
	<g id="Layer">
		<path id="Layer" fill-rule="evenodd" class="shp0" d="M163.9 27C163.9 28.16 164.84 29.1 166 29.1L170 29.1L170 31L166 31C163.79 31 162 29.21 162 27C162 24.79 163.79 23 166 23L170 23L170 24.9L166 24.9C164.84 24.9 163.9 25.84 163.9 27ZM176 23C178.21 23 180 24.79 180 27C180 29.21 178.21 31 176 31L172 31L172 29.1L176 29.1C177.16 29.1 178.1 28.16 178.1 27C178.1 25.84 177.16 24.9 176 24.9L172 24.9L172 23L176 23ZM168 28L168 26L174 26L174 28L168 28Z" />
	</g>
	<g id="Layer">
		<path id="Layer" fill-rule="evenodd" class="shp0" d="M196 19C196.55 19 197 19.45 197 20L197 34C197 34.55 196.55 35 196 35L182 35C181.45 35 181 34.55 181 34L181 20C181 19.45 181.45 19 182 19L196 19ZM183 21L183 33L195 33L195 21L183 21ZM185 31L185 26L187 26L187 31L185 31ZM188 31L188 23L190 23L190 31L188 31ZM191 31L191 27L193 27L193 31L191 31Z" />
	</g>
	<g id="Layer">
		<g id="Layer">
			<path id="Layer" class="shp1" d="M199.5 21.5L214.5 21.5L214.5 33.5L199.5 33.5L199.5 21.5Z" />
			<path id="Layer" fill-rule="evenodd" class="shp0" d="M204 26L205 26L205 33L204 33L204 26Z" />
			<path id="Layer" fill-rule="evenodd" class="shp2" d="M200 22L214 22L214 25L200 25L200 22Z" />
			<path id="Layer" fill-rule="evenodd" class="shp0" d="M200 26L214 26L214 25L200 25L200 26ZM200 30L214 30L214 29L200 29L200 30Z" />
		</g>
	</g>
	<g id="Layer">
		<path id="Layer" fill-rule="evenodd" class="shp0" d="M220 25.5C220.83 25.5 221.5 26.17 221.5 27C221.5 27.83 220.83 28.5 220 28.5C219.17 28.5 218.5 27.83 218.5 27C218.5 26.17 219.17 25.5 220 25.5ZM230 25.5C230.83 25.5 231.5 26.17 231.5 27C231.5 27.83 230.83 28.5 230 28.5C229.17 28.5 228.5 27.83 228.5 27C228.5 26.17 229.17 25.5 230 25.5ZM225 25.5C225.83 25.5 226.5 26.17 226.5 27C226.5 27.83 225.83 28.5 225 28.5C224.17 28.5 223.5 27.83 223.5 27C223.5 26.17 224.17 25.5 225 25.5Z" />
	</g>
	<g id="Layer">
		<path id="Layer" fill-rule="evenodd" class="shp0" d="M244 26L244 22L242 22L242 26L238 26L238 28L242 28L242 32L244 32L244 28L248 28L248 26L244 26Z" />
	</g>
	<g id="Layer">
		<path id="Layer" fill-rule="evenodd" class="shp0" d="M2 38L16 38L16 52L2 52L2 38ZM8 50L8 46L4 46L4 50L8 50ZM8 44L8 40L4 40L4 44L8 44ZM14 50L14 46L10 46L10 50L14 50ZM14 44L14 40L10 40L10 44L14 44Z" />
	</g>
	<g id="Layer">
		<g id="Layer">
			<path id="Layer" fill-rule="evenodd" class="shp3" d="M20 52L20 50L22 50L22 52L20 52ZM22 41L22 43L20 43L20 41L22 41ZM23 52L23 50L25 50L25 52L23 52ZM31 38L31 40L29 40L29 38L31 38ZM22 38L22 40L20 40L20 38L22 38ZM25 38L25 40L23 40L23 38L25 38ZM20 49L20 47L22 47L22 49L20 49ZM29 52L29 50L31 50L31 52L29 52ZM32 38L34 38L34 40L32 40L32 38ZM32 43L32 41L34 41L34 43L32 43ZM32 52L32 50L34 50L34 52L32 52ZM32 49L32 47L34 47L34 49L32 49Z" />
			<path id="Layer" class="shp0" d="M28 38L26 38L26 44L20 44L20 46L26 46L26 52L28 52L28 46L34 46L34 44L28 44L28 38Z" />
		</g>
	</g>
	<g id="Layer">
		<g id="Layer">
			<path id="Layer" fill-rule="evenodd" class="shp3" d="M44 52L44 50L46 50L46 52L44 52ZM41 40L41 38L43 38L43 40L41 40ZM44 49L44 47L46 47L46 49L44 49ZM41 52L41 50L43 50L43 52L41 52ZM38 43L38 41L40 41L40 43L38 43ZM38 52L38 50L40 50L40 52L38 52ZM38 40L38 38L40 38L40 40L38 40ZM38 49L38 47L40 47L40 49L38 49ZM50 49L50 47L52 47L52 49L50 49ZM50 52L50 50L52 50L52 52L50 52ZM50 43L50 41L52 41L52 43L50 43ZM50 38L52 38L52 40L50 40L50 38ZM44 40L44 38L46 38L46 40L44 40ZM47 40L47 38L49 38L49 40L47 40ZM44 43L44 41L46 41L46 43L44 43ZM47 52L47 50L49 50L49 52L47 52Z" />
			<path id="Layer" class="shp0" d="M38 46L52 46L52 44L38 44L38 46Z" />
		</g>
	</g>
	<g id="Layer">
		<g id="Layer">
			<path id="Layer" fill-rule="evenodd" class="shp3" d="M59 52L59 50L61 50L61 52L59 52ZM56 43L56 41L58 41L58 43L56 43ZM56 40L56 38L58 38L58 40L56 40ZM59 46L59 44L61 44L61 46L59 46ZM59 40L59 38L61 38L61 40L59 40ZM56 52L56 50L58 50L58 52L56 52ZM56 46L56 44L58 44L58 46L56 46ZM56 49L56 47L58 47L58 49L56 49ZM68 38L70 38L70 40L68 40L68 38ZM68 46L68 44L70 44L70 46L68 46ZM68 52L68 50L70 50L70 52L68 52ZM68 43L68 41L70 41L70 43L68 43ZM68 49L68 47L70 47L70 49L68 49ZM65 52L65 50L67 50L67 52L65 52ZM65 46L65 44L67 44L67 46L65 46ZM65 40L65 38L67 38L67 40L65 40Z" />
			<path id="Layer" class="shp0" d="M62 52L64 52L64 38L62 38L62 52Z" />
		</g>
	</g>
	<g id="Layer">
		<g id="Layer">
			<path id="Layer" fill-rule="evenodd" class="shp3" d="M82 41L82 43L80 43L80 41L82 41ZM85 44L85 46L83 46L83 44L85 44ZM82 44L82 46L80 46L80 44L82 44ZM82 47L82 49L80 49L80 47L82 47ZM79 44L79 46L77 46L77 44L79 44Z" />
			<path id="Layer" fill-rule="evenodd" class="shp0" d="M74 38L88 38L88 52L74 52L74 38ZM86 50L86 40L76 40L76 50L86 50Z" />
		</g>
	</g>
	<g id="Layer">
		<g id="Layer">
			<path id="Layer" fill-rule="evenodd" class="shp3" d="M98 46L98 44L100 44L100 46L98 46ZM98 43L98 41L100 41L100 43L98 43ZM98 49L98 47L100 47L100 49L98 49ZM98 52L98 50L100 50L100 52L98 52ZM95 52L95 50L97 50L97 52L95 52ZM95 40L95 38L97 38L97 40L95 40ZM95 46L95 44L97 44L97 46L95 46ZM104 52L104 50L106 50L106 52L104 52ZM104 46L104 44L106 44L106 46L104 46ZM104 49L104 47L106 47L106 49L104 49ZM104 43L104 41L106 41L106 43L104 43ZM98 40L98 38L100 38L100 40L98 40ZM104 38L106 38L106 40L104 40L104 38ZM101 52L101 50L103 50L103 52L101 52ZM101 46L101 44L103 44L103 46L101 46ZM101 40L101 38L103 38L103 40L101 40Z" />
			<path id="Layer" class="shp0" d="M92 52L94 52L94 38L92 38L92 52Z" />
		</g>
	</g>
	<g id="Layer">
		<g id="Layer">
			<path id="Layer" fill-rule="evenodd" class="shp3" d="M113 46L113 44L115 44L115 46L113 46ZM110 52L110 50L112 50L112 52L110 52ZM116 52L116 50L118 50L118 52L116 52ZM116 49L116 47L118 47L118 49L116 49ZM113 52L113 50L115 50L115 52L113 52ZM110 49L110 47L112 47L112 49L110 49ZM116 46L116 44L118 44L118 46L116 46ZM110 43L110 41L112 41L112 43L110 43ZM110 46L110 44L112 44L112 46L110 46ZM122 46L122 44L124 44L124 46L122 46ZM122 49L122 47L124 47L124 49L122 49ZM122 43L122 41L124 41L124 43L122 43ZM116 43L116 41L118 41L118 43L116 43ZM119 52L119 50L121 50L121 52L119 52ZM119 46L119 44L121 44L121 46L119 46ZM122 52L122 50L124 50L124 52L122 52Z" />
			<path id="Layer" class="shp0" d="M110 38L110 40L124 40L124 38L110 38Z" />
		</g>
	</g>
	<g id="Layer">
		<g id="Layer">
			<path id="Layer" fill-rule="evenodd" class="shp3" d="M130 40L130 38L128 38L128 40L130 40ZM133 40L133 38L131 38L131 40L133 40ZM133 46L133 44L131 44L131 46L133 46ZM133 52L133 50L131 50L131 52L133 52ZM130 43L130 41L128 41L128 43L130 43ZM130 46L130 44L128 44L128 46L130 46ZM130 52L130 50L128 50L128 52L130 52ZM130 49L130 47L128 47L128 49L130 49ZM139 46L139 44L137 44L137 46L139 46ZM136 52L136 50L134 50L134 52L136 52ZM139 52L139 50L137 50L137 52L139 52ZM136 40L136 38L134 38L134 40L136 40ZM139 40L139 38L137 38L137 40L139 40ZM136 49L136 47L134 47L134 49L136 49ZM136 43L136 41L134 41L134 43L136 43ZM136 46L136 44L134 44L134 46L136 46Z" />
			<path id="Layer" class="shp0" d="M140 38L140 52L142 52L142 38L140 38Z" />
		</g>
	</g>
	<g id="Layer">
		<g id="Layer">
			<path id="Layer" fill-rule="evenodd" class="shp3" d="M151 38L151 40L149 40L149 38L151 38ZM154 44L154 46L152 46L152 44L154 44ZM154 47L154 49L152 49L152 47L154 47ZM157 44L157 46L155 46L155 44L157 44ZM151 44L151 46L149 46L149 44L151 44ZM157 38L157 40L155 40L155 38L157 38ZM154 41L154 43L152 43L152 41L154 41ZM154 38L154 40L152 40L152 38L154 38ZM148 47L148 49L146 49L146 47L148 47ZM158 49L158 47L160 47L160 49L158 49ZM158 43L158 41L160 41L160 43L158 43ZM158 46L158 44L160 44L160 46L158 46ZM158 38L160 38L160 40L158 40L158 38ZM148 38L148 40L146 40L146 38L148 38ZM148 41L148 43L146 43L146 41L148 41ZM148 44L148 46L146 46L146 44L148 44Z" />
			<path id="Layer" class="shp0" d="M146 52L160 52L160 50L146 50L146 52Z" />
		</g>
	</g>
	<g id="Layer">
		<path id="Layer" fill-rule="evenodd" class="shp3" d="M170 52L170 50L172 50L172 52L170 52ZM167 46L167 44L169 44L169 46L167 46ZM167 40L167 38L169 38L169 40L167 40ZM170 49L170 47L172 47L172 49L170 49ZM167 52L167 50L169 50L169 52L167 52ZM164 43L164 41L166 41L166 43L164 43ZM164 52L164 50L166 50L166 52L164 52ZM164 40L164 38L166 38L166 40L164 40ZM164 46L164 44L166 44L166 46L164 46ZM170 46L170 44L172 44L172 46L170 46ZM164 49L164 47L166 47L166 49L164 49ZM176 49L176 47L178 47L178 49L176 49ZM176 52L176 50L178 50L178 52L176 52ZM176 46L176 44L178 44L178 46L176 46ZM176 43L176 41L178 41L178 43L176 43ZM176 38L178 38L178 40L176 40L176 38ZM170 40L170 38L172 38L172 40L170 40ZM173 40L173 38L175 38L175 40L173 40ZM170 43L170 41L172 41L172 43L170 43ZM173 52L173 50L175 50L175 52L173 52ZM173 46L173 44L175 44L175 46L173 46Z" />
	</g>
	<g id="Layer">
		<path id="Layer" fill-rule="evenodd" class="shp0" d="M193.38 42.5L186.88 49L184 49L184 46.12L190.5 39.62L193.38 42.5ZM195.85 40.02L194.5 41.38L191.62 38.5L192.97 37.14C193.17 36.94 193.48 36.94 193.68 37.14L195.85 39.31C196.05 39.51 196.05 39.82 195.85 40.02Z" />
	</g>
	<g id="Layer">
		<path id="Layer" fill-rule="evenodd" class="shp0" d="M200 40L214 40L214 42L200 42L200 40ZM200 44L206 44L206 46L200 46L200 44ZM200 48L202 48L202 50L200 50L200 48ZM208 44L214 44L214 46L208 46L208 44ZM204 48L206 48L206 50L204 50L204 48ZM208 48L210 48L210 50L208 50L208 48ZM212 48L214 48L214 50L212 50L212 48Z" />
	</g>
	<g id="Layer">
		<path id="Layer" class="shp0" d="M227 41L223 45L227 49L227 41Z" />
	</g>
	<g id="Layer">
		<path id="Layer" class="shp0" d="M246.53 42.53L245.47 41.47L243 43.94L240.53 41.47L239.47 42.53L241.94 45L239.47 47.47L240.53 48.53L243 46.06L245.47 48.53L246.53 47.47L244.06 45L246.53 42.53Z" />
	</g>
	<g id="Layer">
		<path id="Layer" class="shp0" d="M12.94 60L9.5 63.44L6.06 60L5 61.06L9.5 65.56L14 61.06L12.94 60Z" />
	</g>
	<g id="Layer">
		<path id="Layer" class="shp0" d="M27 60L22.5 64.5L23.56 65.56L27 62.12L30.44 65.56L31.5 64.5L27 60Z" />
	</g>
	<g id="Layer">
		<path id="Layer" class="shp0" d="M47.56 66.44L44.12 63L47.56 59.56L46.5 58.5L42 63L46.5 67.5L47.56 66.44Z" />
	</g>
	<g id="Layer">
		<path id="Layer" class="shp0" d="M66 63L61.5 58.5L60.44 59.56L63.88 63L60.44 66.44L61.5 67.5L66 63Z" />
	</g>
	<g id="Layer">
		<path id="Layer" class="shp0" d="M75 62L83.88 62L79.94 58.06L81 57L87 63L81 69L79.94 67.94L83.88 64L75 64L75 62Z" />
	</g>
	<g id="Layer">
		<path id="Layer" class="shp0" d="M105 62L96.13 62L100.06 58.06L99 57L93 63L99 69L100.06 67.94L96.13 64L105 64L105 62Z" />
	</g>
</svg>